<svg width="152" height="46" viewBox="0 0 152 46" fill="none" xmlns="http://www.w3.org/2000/svg">
<path d="M8.856 31.16C7.61867 31.16 6.22133 31.0533 4.664 30.84C3.81067 30.7333 3.224 30.5093 2.904 30.168C2.584 29.8267 2.44533 29.272 2.488 28.504C2.63733 26.392 2.98933 23.7893 3.544 20.696C4.09867 17.5813 4.77067 14.584 5.56 11.704C5.70933 11.1707 6.008 10.7973 6.456 10.584C6.904 10.3707 7.49067 10.264 8.216 10.264C9.51733 10.264 10.168 10.6267 10.168 11.352C10.168 11.6507 10.104 11.992 9.976 12.376C9.42133 14.0827 8.86667 16.376 8.312 19.256C7.75733 22.1147 7.36267 24.8453 7.128 27.448C7.768 27.512 8.49333 27.544 9.304 27.544C13.0373 27.544 15.8213 26.4133 17.656 24.152C19.512 21.8907 20.44 18.872 20.44 15.096C20.44 12.5573 19.7147 10.5947 18.264 9.208C16.8133 7.82133 14.7653 7.128 12.12 7.128C10.4133 7.128 8.71733 7.39467 7.032 7.928C5.368 8.46133 3.864 9.16533 2.52 10.04C2.24267 10.232 1.944 10.328 1.624 10.328C1.26133 10.328 0.973333 10.1787 0.76 9.88C0.546667 9.56 0.44 9.176 0.44 8.728C0.44 8.216 0.525333 7.8 0.696 7.48C0.866667 7.13867 1.15467 6.82933 1.56 6.552C3.032 5.54933 4.76 4.792 6.744 4.28C8.728 3.74667 10.6373 3.48 12.472 3.48C15.0747 3.48 17.3253 3.93867 19.224 4.856C21.1227 5.752 22.584 7.07467 23.608 8.824C24.632 10.5733 25.144 12.6853 25.144 15.16C25.144 18.3813 24.504 21.1973 23.224 23.608C21.944 25.9973 20.0773 27.8533 17.624 29.176C15.1707 30.4987 12.248 31.16 8.856 31.16ZM31.1655 13.976C30.2695 13.976 29.5975 13.7733 29.1495 13.368C28.7015 12.9413 28.4775 12.3547 28.4775 11.608C28.4775 10.8613 28.7655 10.2427 29.3415 9.752C29.9388 9.24 30.6748 8.984 31.5495 8.984C32.3388 8.984 32.9788 9.176 33.4695 9.56C33.9602 9.944 34.2055 10.488 34.2055 11.192C34.2055 12.0453 33.9282 12.728 33.3735 13.24C32.8188 13.7307 32.0828 13.976 31.1655 13.976ZM30.9095 31.16C29.5228 31.16 28.5095 30.6693 27.8695 29.688C27.2508 28.7067 26.9415 27.4053 26.9415 25.784C26.9415 24.824 27.0588 23.5973 27.2935 22.104C27.5495 20.5893 27.8695 19.1813 28.2535 17.88C28.4455 17.1973 28.7015 16.728 29.0215 16.472C29.3415 16.216 29.8535 16.088 30.5575 16.088C31.6455 16.088 32.1895 16.4507 32.1895 17.176C32.1895 17.7093 31.9868 18.9467 31.5815 20.888C31.0695 23.2347 30.8135 24.824 30.8135 25.656C30.8135 26.296 30.8988 26.7867 31.0695 27.128C31.2402 27.4693 31.5282 27.64 31.9335 27.64C32.3175 27.64 32.7975 27.3733 33.3735 26.84C33.9495 26.3067 34.7175 25.464 35.6775 24.312C35.9335 24.0133 36.2215 23.864 36.5415 23.864C36.8188 23.864 37.0322 23.992 37.1815 24.248C37.3522 24.504 37.4375 24.856 37.4375 25.304C37.4375 26.1573 37.2348 26.8187 36.8295 27.288C34.7175 29.8693 32.7442 31.16 30.9095 31.16ZM51.2325 23.928C51.5098 23.928 51.7232 24.0667 51.8725 24.344C52.0432 24.6 52.1285 24.9307 52.1285 25.336C52.1285 25.8267 52.0538 26.2107 51.9045 26.488C51.7552 26.7653 51.5205 27.0107 51.2005 27.224C49.3658 28.4613 48.0218 29.3787 47.1685 29.976L45.1205 31.352C44.3098 35.768 43.2432 39.2347 41.9205 41.752C40.6192 44.2907 38.9552 45.56 36.9285 45.56C35.8405 45.56 34.9552 45.2187 34.2725 44.536C33.5898 43.8747 33.2485 43 33.2485 41.912C33.2485 40.3973 33.8458 38.7653 35.0405 37.016C36.2352 35.288 38.4752 33.1547 41.7605 30.616L41.9525 29.368C41.5898 29.944 41.1098 30.392 40.5125 30.712C39.9365 31.0107 39.3605 31.16 38.7845 31.16C37.4618 31.16 36.4058 30.68 35.6165 29.72C34.8272 28.76 34.4325 27.5013 34.4325 25.944C34.4325 24.2373 34.8272 22.6267 35.6165 21.112C36.4058 19.576 37.4512 18.3493 38.7525 17.432C40.0752 16.4933 41.4725 16.024 42.9445 16.024C43.4138 16.024 43.7232 16.12 43.8725 16.312C44.0432 16.4827 44.1818 16.8027 44.2885 17.272C44.6938 17.1867 45.1632 17.144 45.6965 17.144C46.2298 17.144 46.6032 17.2293 46.8165 17.4C47.0512 17.5493 47.1685 17.8587 47.1685 18.328C47.1685 18.584 47.1578 18.7867 47.1365 18.936C47.0512 19.5973 46.7845 21.272 46.3365 23.96C46.2512 24.472 46.1552 25.0373 46.0485 25.656C45.9632 26.2533 45.8672 26.8933 45.7605 27.576C47.4032 26.296 48.9818 25.1653 50.4965 24.184C50.7738 24.0133 51.0192 23.928 51.2325 23.928ZM39.9365 27.928C40.4272 27.928 40.8965 27.6293 41.3445 27.032C41.7925 26.4347 42.1125 25.5813 42.3045 24.472L43.3285 19C42.4538 19.0213 41.6432 19.3627 40.8965 20.024C40.1498 20.664 39.5525 21.5173 39.1045 22.584C38.6565 23.6507 38.4325 24.7813 38.4325 25.976C38.4325 26.6373 38.5605 27.128 38.8165 27.448C39.0938 27.768 39.4672 27.928 39.9365 27.928ZM37.2805 42.456C37.8138 42.456 38.4112 41.816 39.0725 40.536C39.7552 39.256 40.4058 37.2187 41.0245 34.424C39.3818 35.832 38.1978 37.1013 37.4725 38.232C36.7472 39.3627 36.3845 40.3547 36.3845 41.208C36.3845 41.5707 36.4485 41.8693 36.5765 42.104C36.7258 42.3387 36.9605 42.456 37.2805 42.456ZM54.0093 13.976C53.1133 13.976 52.4413 13.7733 51.9933 13.368C51.5453 12.9413 51.3213 12.3547 51.3213 11.608C51.3213 10.8613 51.6093 10.2427 52.1853 9.752C52.7826 9.24 53.5186 8.984 54.3933 8.984C55.1826 8.984 55.8226 9.176 56.3133 9.56C56.8039 9.944 57.0493 10.488 57.0493 11.192C57.0493 12.0453 56.7719 12.728 56.2173 13.24C55.6626 13.7307 54.9266 13.976 54.0093 13.976ZM53.7533 31.16C52.3666 31.16 51.3533 30.6693 50.7133 29.688C50.0946 28.7067 49.7853 27.4053 49.7853 25.784C49.7853 24.824 49.9026 23.5973 50.1373 22.104C50.3933 20.5893 50.7133 19.1813 51.0973 17.88C51.2893 17.1973 51.5453 16.728 51.8653 16.472C52.1853 16.216 52.6973 16.088 53.4013 16.088C54.4893 16.088 55.0333 16.4507 55.0333 17.176C55.0333 17.7093 54.8306 18.9467 54.4253 20.888C53.9133 23.2347 53.6573 24.824 53.6573 25.656C53.6573 26.296 53.7426 26.7867 53.9133 27.128C54.0839 27.4693 54.3719 27.64 54.7773 27.64C55.1613 27.64 55.6413 27.3733 56.2173 26.84C56.7933 26.3067 57.5613 25.464 58.5213 24.312C58.7773 24.0133 59.0653 23.864 59.3853 23.864C59.6626 23.864 59.8759 23.992 60.0253 24.248C60.1959 24.504 60.2813 24.856 60.2813 25.304C60.2813 26.1573 60.0786 26.8187 59.6733 27.288C57.5613 29.8693 55.5879 31.16 53.7533 31.16ZM71.9643 23.864C72.2416 23.864 72.4549 23.992 72.6042 24.248C72.7749 24.504 72.8603 24.856 72.8603 25.304C72.8603 26.1573 72.6576 26.8187 72.2523 27.288C71.3349 28.4187 70.3323 29.3467 69.2443 30.072C68.1563 30.7973 66.9083 31.16 65.5003 31.16C61.1483 31.16 58.9723 28.0987 58.9723 21.976C58.9723 21.0373 59.0043 20.088 59.0683 19.128H57.8203C57.1803 19.128 56.7429 19.0107 56.5083 18.776C56.2949 18.5413 56.1883 18.168 56.1883 17.656C56.1883 16.4613 56.6683 15.864 57.6283 15.864H59.4523C59.8149 13.5173 60.3696 11.3733 61.1163 9.432C61.8629 7.49067 62.7589 5.944 63.8043 4.792C64.8709 3.64 66.0123 3.064 67.2283 3.064C68.1243 3.064 68.8283 3.45867 69.3403 4.248C69.8523 5.03733 70.1083 6.02933 70.1083 7.224C70.1083 10.5307 68.7216 13.4107 65.9483 15.864H69.5323C69.8736 15.864 70.1189 15.9387 70.2683 16.088C70.4176 16.2373 70.4923 16.5147 70.4923 16.92C70.4923 18.392 69.2869 19.128 66.8763 19.128H62.9723C62.9296 20.1947 62.9083 21.0267 62.9083 21.624C62.9083 23.8427 63.1643 25.4 63.6763 26.296C64.2096 27.192 65.0416 27.64 66.1723 27.64C67.0896 27.64 67.9003 27.3627 68.6043 26.808C69.3083 26.2533 70.1403 25.4213 71.1003 24.312C71.3563 24.0133 71.6443 23.864 71.9643 23.864ZM66.3643 6.136C66.0443 6.136 65.6816 6.54133 65.2763 7.352C64.8923 8.14133 64.5189 9.25067 64.1562 10.68C63.8149 12.088 63.5269 13.656 63.2923 15.384C64.5509 14.296 65.4896 13.08 66.1083 11.736C66.7483 10.3707 67.0683 9.13333 67.0683 8.024C67.0683 6.76533 66.8336 6.136 66.3643 6.136ZM74.1908 31.16C72.8681 31.16 71.8121 30.68 71.0228 29.72C70.2334 28.76 69.8388 27.5013 69.8388 25.944C69.8388 24.2373 70.2334 22.6267 71.0228 21.112C71.8121 19.576 72.8574 18.3493 74.1588 17.432C75.4814 16.4933 76.8788 16.024 78.3508 16.024C78.8201 16.024 79.1294 16.12 79.2788 16.312C79.4494 16.4827 79.5881 16.8027 79.6948 17.272C80.1428 17.1867 80.6121 17.144 81.1028 17.144C82.1481 17.144 82.6708 17.5173 82.6708 18.264C82.6708 18.712 82.5108 19.7787 82.1908 21.464C81.7001 23.9173 81.4548 25.624 81.4548 26.584C81.4548 26.904 81.5294 27.16 81.6788 27.352C81.8494 27.544 82.0628 27.64 82.3188 27.64C82.7241 27.64 83.2148 27.384 83.7908 26.872C84.3668 26.3387 85.1454 25.4853 86.1268 24.312C86.3828 24.0133 86.6708 23.864 86.9908 23.864C87.2681 23.864 87.4814 23.992 87.6308 24.248C87.8014 24.504 87.8868 24.856 87.8868 25.304C87.8868 26.1573 87.6841 26.8187 87.2788 27.288C86.4041 28.376 85.4761 29.2933 84.4948 30.04C83.5134 30.7867 82.5641 31.16 81.6468 31.16C80.9428 31.16 80.2921 30.9253 79.6948 30.456C79.1188 29.9653 78.6814 29.304 78.3828 28.472C77.2734 30.264 75.8761 31.16 74.1908 31.16ZM75.3428 27.928C75.8121 27.928 76.2601 27.6507 76.6868 27.096C77.1134 26.5413 77.4228 25.8053 77.6148 24.888L78.7988 19C77.9028 19.0213 77.0708 19.3627 76.3028 20.024C75.5561 20.664 74.9588 21.5173 74.5108 22.584C74.0628 23.6507 73.8388 24.7813 73.8388 25.976C73.8388 26.6373 73.9668 27.128 74.2228 27.448C74.5001 27.768 74.8734 27.928 75.3428 27.928ZM94.534 26.488C94.7687 26.2747 95.0033 26.168 95.238 26.168C95.494 26.168 95.6967 26.3173 95.846 26.616C96.0167 26.8933 96.102 27.2347 96.102 27.64C96.102 28.536 95.782 29.2507 95.142 29.784C94.0327 30.7013 92.774 31.16 91.366 31.16C89.3393 31.16 87.8567 30.3173 86.918 28.632C85.9793 26.9253 85.51 24.7067 85.51 21.976C85.51 19.3733 85.8407 16.408 86.502 13.08C87.1847 9.752 88.1767 6.89333 89.478 4.504C90.8007 2.11466 92.3687 0.919998 94.182 0.919998C95.206 0.919998 96.006 1.4 96.582 2.36C97.1793 3.29867 97.478 4.65333 97.478 6.424C97.478 8.96267 96.774 11.9067 95.366 15.256C93.9793 18.6053 92.0807 21.912 89.67 25.176C89.8193 26.0507 90.086 26.68 90.47 27.064C90.854 27.448 91.3767 27.64 92.038 27.64C92.4007 27.64 92.806 27.5333 93.254 27.32C93.7233 27.1067 94.15 26.8293 94.534 26.488ZM93.478 4.088C92.9873 4.088 92.4327 4.97333 91.814 6.744C91.1953 8.51467 90.6513 10.712 90.182 13.336C89.7127 15.96 89.4567 18.4773 89.414 20.888C90.9287 18.392 92.134 15.896 93.03 13.4C93.926 10.8827 94.374 8.58933 94.374 6.52C94.374 4.89867 94.0753 4.088 93.478 4.088Z" fill="white"/>
<path d="M110.027 31.16C107.489 31.16 105.281 30.7013 103.403 29.784C101.526 28.8453 100.086 27.5227 99.0833 25.816C98.0806 24.1093 97.5793 22.1253 97.5793 19.864C97.5793 16.728 98.1659 13.944 99.3393 11.512C100.534 9.08 102.145 7.20267 104.171 5.88C106.198 4.536 108.449 3.864 110.923 3.864C113.227 3.864 114.977 4.46133 116.171 5.656C117.366 6.82933 117.963 8.38667 117.963 10.328C117.963 11.6293 117.729 12.6747 117.259 13.464C116.811 14.2533 116.161 14.648 115.307 14.648C114.71 14.648 114.241 14.5093 113.899 14.232C113.558 13.9547 113.387 13.5493 113.387 13.016C113.387 12.824 113.43 12.472 113.515 11.96C113.643 11.32 113.707 10.808 113.707 10.424C113.707 8.48267 112.673 7.512 110.603 7.512C109.195 7.512 107.851 7.97067 106.571 8.888C105.291 9.80533 104.257 11.16 103.467 12.952C102.678 14.7227 102.283 16.8347 102.283 19.288C102.283 21.848 102.998 23.832 104.427 25.24C105.857 26.6267 107.969 27.32 110.763 27.32C112.15 27.32 113.547 27.1493 114.955 26.808C116.385 26.4453 117.963 25.9013 119.691 25.176C120.011 25.048 120.278 24.984 120.491 24.984C120.833 24.984 121.089 25.112 121.259 25.368C121.43 25.624 121.515 25.9547 121.515 26.36C121.515 27.6613 120.811 28.6213 119.403 29.24C117.889 29.9013 116.31 30.392 114.667 30.712C113.046 31.0107 111.499 31.16 110.027 31.16ZM123.197 13.976C122.301 13.976 121.629 13.7733 121.181 13.368C120.733 12.9413 120.509 12.3547 120.509 11.608C120.509 10.8613 120.797 10.2427 121.373 9.752C121.97 9.24 122.706 8.984 123.581 8.984C124.37 8.984 125.01 9.176 125.501 9.56C125.991 9.944 126.237 10.488 126.237 11.192C126.237 12.0453 125.959 12.728 125.405 13.24C124.85 13.7307 124.114 13.976 123.197 13.976ZM122.941 31.16C121.554 31.16 120.541 30.6693 119.901 29.688C119.282 28.7067 118.973 27.4053 118.973 25.784C118.973 24.824 119.09 23.5973 119.325 22.104C119.581 20.5893 119.901 19.1813 120.285 17.88C120.477 17.1973 120.733 16.728 121.053 16.472C121.373 16.216 121.885 16.088 122.589 16.088C123.677 16.088 124.221 16.4507 124.221 17.176C124.221 17.7093 124.018 18.9467 123.613 20.888C123.101 23.2347 122.845 24.824 122.845 25.656C122.845 26.296 122.93 26.7867 123.101 27.128C123.271 27.4693 123.559 27.64 123.965 27.64C124.349 27.64 124.829 27.3733 125.405 26.84C125.981 26.3067 126.749 25.464 127.709 24.312C127.965 24.0133 128.253 23.864 128.573 23.864C128.85 23.864 129.063 23.992 129.213 24.248C129.383 24.504 129.469 24.856 129.469 25.304C129.469 26.1573 129.266 26.8187 128.861 27.288C126.749 29.8693 124.775 31.16 122.941 31.16ZM141.152 23.864C141.429 23.864 141.642 23.992 141.792 24.248C141.962 24.504 142.048 24.856 142.048 25.304C142.048 26.1573 141.845 26.8187 141.44 27.288C140.522 28.4187 139.52 29.3467 138.432 30.072C137.344 30.7973 136.096 31.16 134.688 31.16C130.336 31.16 128.16 28.0987 128.16 21.976C128.16 21.0373 128.192 20.088 128.256 19.128H127.008C126.368 19.128 125.93 19.0107 125.696 18.776C125.482 18.5413 125.376 18.168 125.376 17.656C125.376 16.4613 125.856 15.864 126.816 15.864H128.64C129.002 13.5173 129.557 11.3733 130.304 9.432C131.05 7.49067 131.946 5.944 132.992 4.792C134.058 3.64 135.2 3.064 136.416 3.064C137.312 3.064 138.016 3.45867 138.528 4.248C139.04 5.03733 139.296 6.02933 139.296 7.224C139.296 10.5307 137.909 13.4107 135.136 15.864H138.72C139.061 15.864 139.306 15.9387 139.456 16.088C139.605 16.2373 139.68 16.5147 139.68 16.92C139.68 18.392 138.474 19.128 136.064 19.128H132.16C132.117 20.1947 132.096 21.0267 132.096 21.624C132.096 23.8427 132.352 25.4 132.864 26.296C133.397 27.192 134.229 27.64 135.36 27.64C136.277 27.64 137.088 27.3627 137.792 26.808C138.496 26.2533 139.328 25.4213 140.288 24.312C140.544 24.0133 140.832 23.864 141.152 23.864ZM135.552 6.136C135.232 6.136 134.869 6.54133 134.464 7.352C134.08 8.14133 133.706 9.25067 133.344 10.68C133.002 12.088 132.714 13.656 132.48 15.384C133.738 14.296 134.677 13.08 135.296 11.736C135.936 10.3707 136.256 9.13333 136.256 8.024C136.256 6.76533 136.021 6.136 135.552 6.136ZM150.642 16.088C151.133 16.088 151.474 16.152 151.666 16.28C151.858 16.408 151.954 16.6213 151.954 16.92C151.954 17.432 151.677 19.256 151.122 22.392C150.632 25.4 150.344 27.1813 150.258 27.736C149.469 33.2187 148.381 37.56 146.994 40.76C145.608 43.96 143.762 45.56 141.458 45.56C140.37 45.56 139.485 45.2187 138.802 44.536C138.12 43.8747 137.778 43 137.778 41.912C137.778 40.9093 138.002 39.8853 138.45 38.84C138.92 37.7947 139.773 36.5893 141.01 35.224C142.269 33.88 144.04 32.3333 146.322 30.584L146.418 29.848C146.568 29.0587 146.738 27.928 146.93 26.456C146.504 27.992 145.906 29.1653 145.138 29.976C144.37 30.7653 143.56 31.16 142.706 31.16C141.746 31.16 140.957 30.7227 140.338 29.848C139.741 28.952 139.442 27.8427 139.442 26.52C139.442 24.92 139.549 23.4587 139.762 22.136C139.976 20.792 140.328 19.3733 140.818 17.88C141.032 17.24 141.33 16.7813 141.714 16.504C142.098 16.2267 142.706 16.088 143.538 16.088C144.008 16.088 144.328 16.1627 144.498 16.312C144.69 16.4613 144.786 16.6853 144.786 16.984C144.786 17.1547 144.669 17.7307 144.434 18.712C144.221 19.5013 144.05 20.216 143.922 20.856C143.752 21.7307 143.602 22.5733 143.474 23.384C143.346 24.1733 143.282 24.824 143.282 25.336C143.282 26.1467 143.506 26.552 143.954 26.552C144.274 26.552 144.669 26.232 145.138 25.592C145.629 24.952 146.141 23.9813 146.674 22.68C147.229 21.3787 147.762 19.7787 148.274 17.88C148.445 17.24 148.701 16.7813 149.042 16.504C149.405 16.2267 149.938 16.088 150.642 16.088ZM141.81 42.456C142.344 42.456 142.941 41.8373 143.602 40.6C144.264 39.3627 144.925 37.304 145.586 34.424C143.944 35.8107 142.749 37.0693 142.002 38.2C141.277 39.352 140.914 40.3547 140.914 41.208C140.914 41.5707 140.978 41.8693 141.106 42.104C141.256 42.3387 141.49 42.456 141.81 42.456Z" fill="#FF7E21"/>
</svg>
