<svg height="512pt" viewBox="0 0 512 512" width="512pt" xmlns="http://www.w3.org/2000/svg"><path d="m436.71875 70.855469c-48.316406-45.691407-112.496094-70.855469-180.71875-70.855469l-60 242.914062 60 242.914063c68.222656 0 132.402344-25.164063 180.71875-70.855469 48.546875-45.910156 75.28125-107.015625 75.28125-172.058594 0-65.042968-26.734375-126.148437-75.28125-172.058593zm0 0" fill="#2476ed"/><path d="m75.28125 70.855469c-48.546875 45.910156-75.28125 107.015625-75.28125 172.058593 0 70.292969 31.699219 136.457032 87.238281 182.664063v86.421875l79.183594-41.476562c28.632813 10.160156 58.730469 15.304687 89.578125 15.304687v-485.828125c-68.222656 0-132.402344 25.164062-180.71875 70.855469zm0 0" fill="#5596fb"/><path d="m434.890625 181.445312-138.503906 46.960938-40.386719-43.171875-20 65.871094 20 65.871093 27.296875 29.175782zm0 0" fill="#d5f1fe"/><path d="m228.703125 156.054688-151.59375 164.707031 138.503906-46.960938 40.386719 43.175781v-131.742187zm0 0" fill="#fff"/></svg>